<svg width="477" height="118" viewBox="0 0 477 118" fill="none" xmlns="http://www.w3.org/2000/svg">
<circle cx="57" cy="59" r="57" fill="white"/>
<path d="M83.7898 29.856C83.6298 32.032 82.8298 34.16 81.3898 36.24C79.9818 38.32 78.4938 39.872 76.9258 40.896C74.5898 39.328 72.0298 38.08 69.2458 37.152C66.4938 36.192 63.7738 35.712 61.0858 35.712C57.8538 35.712 55.0538 36.48 52.6858 38.016C50.3178 39.552 48.4778 41.936 47.1658 45.168C45.8858 48.4 45.2458 52.592 45.2458 57.744C45.2458 65.232 46.6218 70.704 49.3738 74.16C52.1578 77.616 56.1258 79.344 61.2778 79.344C64.4138 79.344 67.2298 79.056 69.7258 78.48C72.2218 77.904 74.2858 77.392 75.9178 76.944L83.9338 87.456C82.0778 88.064 79.8378 88.688 77.2138 89.328C74.6218 89.936 71.7578 90.432 68.6218 90.816C65.4858 91.232 62.1578 91.44 58.6378 91.44C53.7098 91.44 49.4218 90.656 45.7738 89.088C42.1258 87.52 39.1018 85.264 36.7018 82.32C34.3018 79.376 32.5098 75.824 31.3258 71.664C30.1418 67.504 29.5498 62.832 29.5498 57.648C29.5498 51.824 30.3978 46.752 32.0938 42.432C33.7898 38.08 36.0938 34.464 39.0058 31.584C41.9178 28.704 45.1978 26.56 48.8458 25.152C52.4938 23.712 56.2698 22.992 60.1738 22.992C64.5578 22.992 68.7658 23.632 72.7978 24.912C76.8618 26.16 80.5258 27.808 83.7898 29.856ZM69.5338 72.192C69.5338 69.92 69.6138 67.52 69.7738 64.992C69.9338 62.432 70.3178 60.08 70.9258 57.936L83.9338 62.256V87.456L69.5338 87.648V72.192ZM73.8058 52.752C77.6138 52.752 80.2538 53.648 81.7258 55.44C83.1978 57.2 83.9338 59.472 83.9338 62.256V65.52H65.0218C62.5578 65.52 60.7178 65.056 59.5018 64.128C58.2858 63.2 57.6778 61.52 57.6778 59.088C57.6778 58.064 57.7738 56.976 57.9658 55.824C58.1898 54.672 58.4618 53.648 58.7818 52.752H73.8058Z" fill="black"/>
<path d="M158.509 51.672C157.976 52.056 157.538 52.6747 157.197 53.528C156.877 54.36 156.717 55.2773 156.717 56.28V73.176C156.717 76.1627 156.578 78.6267 156.301 80.568C156.045 82.5307 155.672 84.12 155.181 85.336C154.69 86.5733 154.104 87.6187 153.421 88.472C152.162 90.0933 150.488 91.2773 148.397 92.024C146.306 92.7707 143.981 93.144 141.421 93.144C139.416 93.144 137.325 92.9413 135.149 92.536C132.973 92.152 131.053 91.6507 129.389 91.032C129.389 89.8587 129.624 88.568 130.093 87.16C130.562 85.752 131.149 84.632 131.853 83.8C133.218 84.3973 134.648 84.8667 136.141 85.208C137.634 85.5493 139.085 85.72 140.493 85.72C142.05 85.72 143.298 85.4533 144.237 84.92C145.197 84.3867 145.89 83.6293 146.317 82.648C146.744 81.6667 146.957 80.5253 146.957 79.224V56.152C146.957 53.4853 147.672 51.2347 149.101 49.4C150.53 47.544 152.653 46.5947 155.469 46.552C156.088 47.0213 156.717 47.7787 157.357 48.824C157.997 49.848 158.381 50.7973 158.509 51.672ZM128.173 63.096C128.173 59.4267 128.76 56.3333 129.933 53.816C131.106 51.2773 132.664 49.3573 134.605 48.056C136.546 46.7547 138.68 46.104 141.005 46.104C143.096 46.104 144.866 46.4453 146.317 47.128C147.789 47.8107 149.005 48.6427 149.965 49.624C150.946 50.6053 151.704 51.5653 152.237 52.504L150.605 60.664C149.368 58.3387 148.034 56.568 146.605 55.352C145.197 54.136 143.917 53.528 142.765 53.528C141.208 53.528 140.088 54.392 139.405 56.12C138.744 57.8267 138.413 60.1733 138.413 63.16C138.413 66.1253 138.765 68.28 139.469 69.624C140.194 70.9467 141.101 71.608 142.189 71.608C143.469 71.608 144.717 71.1707 145.933 70.296C147.17 69.4213 148.205 68.12 149.037 66.392L150.445 73.336C149.741 74.5307 148.834 75.608 147.725 76.568C146.616 77.528 145.368 78.2853 143.981 78.84C142.616 79.3733 141.186 79.64 139.693 79.64C137.09 79.64 134.936 78.936 133.229 77.528C131.522 76.12 130.253 74.1787 129.421 71.704C128.589 69.208 128.173 66.3387 128.173 63.096ZM196.662 48.824C196.662 50.872 196.267 52.696 195.478 54.296C194.688 55.8747 193.696 57.1867 192.502 58.232C191.307 59.2773 190.102 60.0453 188.886 60.536C190.08 60.9627 191.072 61.6987 191.862 62.744C192.672 63.7893 193.323 65.016 193.814 66.424L195.734 71.832C196.096 72.8347 196.534 73.7413 197.046 74.552C197.579 75.3413 198.198 76.0133 198.902 76.568C198.24 77.4213 197.28 78.136 196.022 78.712C194.784 79.288 193.472 79.576 192.086 79.576C190.251 79.576 188.918 79.0853 188.086 78.104C187.254 77.1013 186.496 75.6187 185.814 73.656L183.51 66.968C183.147 65.8587 182.582 64.92 181.814 64.152C181.046 63.3627 179.808 62.968 178.102 62.968H171.286V55.32C172.118 55.2773 173.142 55.2347 174.358 55.192C175.595 55.128 176.768 55.0853 177.878 55.064C178.987 55.0213 179.766 55 180.214 55C181.835 55 183.072 54.712 183.926 54.136C184.8 53.5387 185.398 52.7707 185.718 51.832C186.059 50.8933 186.23 49.8907 186.23 48.824C186.23 47.7147 186.059 46.6907 185.718 45.752C185.398 44.8133 184.8 44.0667 183.926 43.512C183.072 42.936 181.835 42.648 180.214 42.648C179.552 42.648 178.827 42.648 178.038 42.648C177.248 42.6267 176.384 42.6053 175.446 42.584V79C174.592 79.1493 173.696 79.2453 172.758 79.288C171.84 79.352 171.04 79.384 170.358 79.384C169.76 79.384 168.971 79.352 167.99 79.288C167.008 79.2453 166.112 79.1493 165.302 79V35.608L165.75 35.16C168.48 35.096 171.104 35.0427 173.622 35C176.16 34.936 178.646 34.904 181.078 34.904C184.043 34.904 186.699 35.3947 189.046 36.376C191.392 37.336 193.248 38.84 194.614 40.888C195.979 42.936 196.662 45.5813 196.662 48.824ZM235.653 50.136C235.653 53.464 234.97 56.2587 233.604 58.52C232.261 60.76 230.405 62.456 228.037 63.608C225.69 64.7387 223.002 65.304 219.973 65.304H210.597V57.816C211.173 57.7733 212.058 57.7307 213.253 57.688C214.447 57.6453 215.61 57.6133 216.741 57.592C217.893 57.5493 218.682 57.528 219.109 57.528C220.815 57.528 222.106 57.1227 222.981 56.312C223.855 55.5013 224.442 54.5307 224.741 53.4C225.039 52.248 225.189 51.16 225.189 50.136C225.189 49.1333 225.039 48.0667 224.741 46.936C224.442 45.784 223.855 44.8027 222.981 43.992C222.106 43.1813 220.815 42.776 219.109 42.776C218.469 42.776 217.829 42.776 217.189 42.776C216.57 42.7547 215.823 42.7333 214.949 42.712V79C214.095 79.1493 213.189 79.2453 212.229 79.288C211.29 79.352 210.479 79.384 209.797 79.384C209.178 79.384 208.367 79.352 207.365 79.288C206.383 79.2453 205.487 79.1493 204.677 79V35.608L205.125 35.16C207.855 35.096 210.405 35.0427 212.773 35C215.162 34.936 217.562 34.904 219.973 34.904C223.002 34.904 225.69 35.4587 228.037 36.568C230.405 37.656 232.261 39.3307 233.604 41.592C234.97 43.832 235.653 46.68 235.653 50.136ZM265.212 52.696C265.255 50.9253 265.073 49.2613 264.668 47.704C264.284 46.1253 263.58 44.856 262.556 43.896C261.532 42.9147 260.071 42.424 258.172 42.424C255.42 42.424 253.457 43.704 252.284 46.264C251.132 48.824 250.556 52.5253 250.556 57.368C250.556 61.9333 251.313 65.3573 252.828 67.64C254.364 69.9013 256.529 71.032 259.324 71.032C261.543 71.032 263.537 70.5627 265.308 69.624C267.079 68.6853 268.711 67.6613 270.204 66.552C271.207 67.2133 272.188 68.184 273.148 69.464C274.108 70.7227 274.695 71.9493 274.908 73.144C273.671 74.36 272.135 75.4907 270.3 76.536C268.487 77.56 266.481 78.3813 264.284 79C262.087 79.64 259.804 79.96 257.436 79.96C254.087 79.96 251.271 79.3093 248.988 78.008C246.727 76.6853 244.924 74.936 243.58 72.76C242.236 70.5627 241.265 68.1307 240.668 65.464C240.092 62.776 239.804 60.056 239.804 57.304C239.804 51.928 240.657 47.5547 242.364 44.184C244.071 40.792 246.332 38.296 249.148 36.696C251.985 35.096 255.111 34.296 258.524 34.296C261.831 34.296 264.711 34.8827 267.164 36.056C269.639 37.2293 271.548 38.8187 272.892 40.824C274.257 42.8293 274.94 45.0907 274.94 47.608C274.94 49.6133 274.417 51.0533 273.372 51.928C272.348 52.8027 270.919 53.24 269.084 53.24C268.359 53.24 267.687 53.1867 267.068 53.08C266.449 52.9733 265.831 52.8453 265.212 52.696ZM318.275 52.696C318.317 50.9253 318.136 49.2613 317.731 47.704C317.347 46.1253 316.643 44.856 315.619 43.896C314.595 42.9147 313.133 42.424 311.235 42.424C308.483 42.424 306.52 43.704 305.347 46.264C304.195 48.824 303.619 52.5253 303.619 57.368C303.619 61.9333 304.376 65.3573 305.891 67.64C307.427 69.9013 309.592 71.032 312.387 71.032C314.605 71.032 316.6 70.5627 318.371 69.624C320.141 68.6853 321.773 67.6613 323.267 66.552C324.269 67.2133 325.251 68.184 326.211 69.464C327.171 70.7227 327.757 71.9493 327.971 73.144C326.733 74.36 325.197 75.4907 323.363 76.536C321.549 77.56 319.544 78.3813 317.347 79C315.149 79.64 312.867 79.96 310.499 79.96C307.149 79.96 304.333 79.3093 302.051 78.008C299.789 76.6853 297.987 74.936 296.643 72.76C295.299 70.5627 294.328 68.1307 293.731 65.464C293.155 62.776 292.867 60.056 292.867 57.304C292.867 51.928 293.72 47.5547 295.427 44.184C297.133 40.792 299.395 38.296 302.211 36.696C305.048 35.096 308.173 34.296 311.587 34.296C314.893 34.296 317.773 34.8827 320.227 36.056C322.701 37.2293 324.611 38.8187 325.955 40.824C327.32 42.8293 328.003 45.0907 328.003 47.608C328.003 49.6133 327.48 51.0533 326.435 51.928C325.411 52.8027 323.981 53.24 322.147 53.24C321.421 53.24 320.749 53.1867 320.131 53.08C319.512 52.9733 318.893 52.8453 318.275 52.696ZM347.611 71.704C347.845 72.408 348.037 73.176 348.187 74.008C348.336 74.8187 348.411 75.6293 348.411 76.44C348.411 76.8027 348.389 77.1867 348.347 77.592C348.325 77.9973 348.261 78.36 348.155 78.68C347.195 78.8293 346.117 78.968 344.923 79.096C343.728 79.2453 342.512 79.32 341.275 79.32C338.373 79.32 336.315 78.6053 335.099 77.176C333.904 75.7253 333.307 73.4747 333.307 70.424V32.344L333.755 31.896H337.659C339.621 31.896 341.008 32.344 341.819 33.24C342.651 34.136 343.067 35.6933 343.067 37.912V68.664C343.067 70.6907 343.995 71.704 345.851 71.704H347.611ZM364.141 79C363.437 79.128 362.637 79.224 361.741 79.288C360.866 79.352 360.002 79.384 359.149 79.384C358.317 79.384 357.453 79.352 356.557 79.288C355.682 79.224 354.871 79.128 354.125 79V57.816C354.125 56.7493 353.901 55.864 353.453 55.16C353.026 54.456 352.247 54.104 351.117 54.104H350.157C349.879 53.016 349.741 51.8853 349.741 50.712C349.741 50.1573 349.773 49.5707 349.837 48.952C349.901 48.312 350.007 47.704 350.157 47.128C351.138 47.0213 352.141 46.9467 353.165 46.904C354.21 46.84 355.085 46.808 355.789 46.808H357.165C359.319 46.808 361.015 47.5013 362.253 48.888C363.511 50.2533 364.141 52.1093 364.141 54.456V79ZM352.205 38.072C352.205 37.4747 352.269 36.856 352.397 36.216C352.525 35.5547 352.706 34.9253 352.941 34.328C353.495 34.0507 354.21 33.816 355.085 33.624C355.981 33.432 356.855 33.336 357.709 33.336C358.583 33.336 359.469 33.432 360.365 33.624C361.282 33.816 361.986 34.0507 362.477 34.328C362.711 34.9253 362.893 35.5653 363.021 36.248C363.149 36.9093 363.213 37.5173 363.213 38.072C363.213 38.648 363.149 39.2667 363.021 39.928C362.893 40.5893 362.711 41.208 362.477 41.784C361.986 42.0613 361.282 42.296 360.365 42.488C359.469 42.68 358.583 42.776 357.709 42.776C356.855 42.776 355.97 42.6907 355.053 42.52C354.135 42.328 353.431 42.0827 352.941 41.784C352.706 41.208 352.525 40.5893 352.397 39.928C352.269 39.2667 352.205 38.648 352.205 38.072ZM376.195 66.264V59.384H388.259V58.648C388.259 57.6667 388.12 56.7707 387.843 55.96C387.566 55.128 387.118 54.4667 386.499 53.976C385.902 53.464 385.091 53.208 384.067 53.208C382.51 53.208 381.411 53.848 380.771 55.128C380.152 56.408 379.843 58.3813 379.843 61.048V64.056C379.843 65.5067 379.971 66.8613 380.227 68.12C380.483 69.3787 381.027 70.392 381.859 71.16C382.691 71.928 383.96 72.312 385.667 72.312C387.118 72.312 388.536 72.1307 389.923 71.768C391.331 71.384 392.675 70.9253 393.955 70.392C394.702 71.1173 395.299 72.0347 395.747 73.144C396.195 74.2533 396.494 75.3093 396.643 76.312C395.022 77.4853 393.08 78.3813 390.819 79C388.579 79.64 386.318 79.96 384.035 79.96C381.219 79.96 378.894 79.5013 377.059 78.584C375.224 77.6453 373.774 76.3867 372.707 74.808C371.64 73.208 370.883 71.416 370.435 69.432C370.008 67.4267 369.795 65.368 369.795 63.256C369.795 60.0347 370.275 57.1333 371.235 54.552C372.216 51.9493 373.763 49.8907 375.875 48.376C377.987 46.8613 380.739 46.104 384.131 46.104C386.947 46.104 389.347 46.7013 391.331 47.896C393.315 49.0907 394.83 50.712 395.875 52.76C396.942 54.7867 397.475 57.0907 397.475 59.672C397.475 61.1013 397.4 62.296 397.251 63.256C397.123 64.1947 396.91 65.1973 396.611 66.264H376.195ZM407.657 46.616C409.577 46.616 411.017 47.2773 411.977 48.6C412.958 49.9013 413.449 51.6613 413.449 53.88V79C412.745 79.128 411.945 79.224 411.049 79.288C410.174 79.352 409.31 79.384 408.457 79.384C407.625 79.384 406.761 79.352 405.865 79.288C404.99 79.224 404.18 79.128 403.433 79V47.064L403.881 46.616H407.657ZM430.953 71C430.953 72.2373 431.07 73.4107 431.305 74.52C431.54 75.608 431.956 76.5573 432.553 77.368C431.828 77.9653 430.921 78.4773 429.833 78.904C428.745 79.3093 427.572 79.512 426.313 79.512C424.308 79.512 422.91 78.9787 422.121 77.912C421.332 76.8453 420.937 75.3093 420.937 73.304V59.704C420.937 58.2533 420.745 57.1867 420.361 56.504C419.998 55.8 419.284 55.448 418.217 55.448C417.556 55.448 416.788 55.6293 415.913 55.992C415.06 56.3333 414.196 56.9093 413.321 57.72C412.468 58.5307 411.71 59.608 411.049 60.952V52.184C412.564 50.7333 414.196 49.4213 415.945 48.248C417.716 47.0747 419.732 46.488 421.993 46.488C423.956 46.488 425.598 46.9787 426.921 47.96C428.244 48.92 429.246 50.2533 429.929 51.96C430.612 53.6667 430.953 55.64 430.953 57.88V71ZM439.777 43.448C439.777 41.2293 440.182 39.672 440.993 38.776C441.825 37.88 443.222 37.432 445.185 37.432H449.089L449.537 37.88V68.696C449.537 69.656 449.75 70.4027 450.177 70.936C450.625 71.448 451.361 71.704 452.385 71.704H455.969C456.502 73.2613 456.769 74.84 456.769 76.44C456.769 76.8027 456.748 77.1867 456.705 77.592C456.684 77.9973 456.62 78.36 456.513 78.68C455.34 78.8293 453.985 78.968 452.449 79.096C450.913 79.2453 449.505 79.32 448.225 79.32C445.324 79.32 443.19 78.6053 441.825 77.176C440.46 75.7253 439.777 73.4747 439.777 70.424V43.448ZM457.121 47C457.42 48.1307 457.569 49.2933 457.569 50.488C457.569 51.7893 457.42 52.9947 457.121 54.104L445.185 53.912L434.753 54.104C434.476 52.9733 434.337 51.768 434.337 50.488C434.337 49.336 434.476 48.1733 434.753 47L445.473 47.16L457.121 47ZM461.955 74.648C461.955 74.264 462.008 73.6667 462.115 72.856C462.243 72.0453 462.445 71.352 462.723 70.776C463.363 70.4133 464.141 70.1253 465.059 69.912C465.997 69.6987 466.893 69.592 467.747 69.592C468.579 69.592 469.464 69.6987 470.403 69.912C471.341 70.1253 472.131 70.4133 472.771 70.776C473.048 71.352 473.24 72.0453 473.347 72.856C473.453 73.6667 473.507 74.264 473.507 74.648C473.507 75.032 473.453 75.6293 473.347 76.44C473.24 77.2507 473.048 77.944 472.771 78.52C472.131 78.9253 471.341 79.2133 470.403 79.384C469.464 79.576 468.579 79.672 467.747 79.672C466.893 79.672 465.997 79.576 465.059 79.384C464.141 79.2133 463.363 78.9253 462.723 78.52C462.445 77.944 462.243 77.2507 462.115 76.44C462.008 75.6293 461.955 75.032 461.955 74.648Z" fill="white"/>
</svg>
